<?xml version="1.0"?>
<svg xmlns="http://www.w3.org/2000/svg" xmlns:xlink="http://www.w3.org/1999/xlink" xmlns:svgjs="http://svgjs.com/svgjs" version="1.1" width="512" height="512" x="0" y="0" viewBox="0 0 512 512" style="enable-background:new 0 0 512 512" xml:space="preserve"><g><g xmlns="http://www.w3.org/2000/svg"><path d="m338.95 243.28-120-75c-4.625-2.89-10.453-3.043-15.222-.4-4.77 2.643-7.729 7.667-7.729 13.12v150c0 5.453 2.959 10.476 7.729 13.12 2.266 1.256 4.77 1.88 7.271 1.88 2.763 0 5.522-.763 7.95-2.28l120-75c4.386-2.741 7.05-7.548 7.05-12.72s-2.663-9.979-7.049-12.72zm-112.95 60.656v-95.873l76.698 47.937z" fill="#fffefe" data-original="#000000" style=""/><path d="m437 61h-362c-41.355 0-75 33.645-75 75v240c0 41.355 33.645 75 75 75h362c41.355 0 75-33.645 75-75v-240c0-41.355-33.645-75-75-75zm45 315c0 24.813-20.187 45-45 45h-362c-24.813 0-45-20.187-45-45v-240c0-24.813 20.187-45 45-45h362c24.813 0 45 20.187 45 45z" fill="#fffefe" data-original="#000000" style=""/></g></g></svg>
