<?xml version="1.0"?>
<svg xmlns="http://www.w3.org/2000/svg" xmlns:xlink="http://www.w3.org/1999/xlink" xmlns:svgjs="http://svgjs.com/svgjs" version="1.1" width="512" height="512" x="0" y="0" viewBox="0 0 512 512" style="enable-background:new 0 0 512 512" xml:space="preserve" class=""><g><path xmlns="http://www.w3.org/2000/svg" d="m221.683594 138.804688v91.890624l80.683594-45.945312zm0 0" fill="#ffffff" data-original="#000000" style="" class=""/><path xmlns="http://www.w3.org/2000/svg" d="m501.425781 64.164062c-6.917969-26.042968-27.308593-46.546874-53.207031-53.511718-38.398438-10.351563-176.585938-10.652344-192.21875-10.652344s-153.820312.300781-192.210938 10.648438c-25.90625 6.96875-46.296874 27.472656-53.210937 53.503906-10.457031 39.269531-10.578125 117.296875-10.578125 120.597656s.121094 81.328125 10.574219 120.585938c6.917969 26.042968 27.308593 46.546874 53.207031 53.511718 38.398438 10.351563 176.585938 10.652344 192.21875 10.652344s153.820312-.300781 192.210938-10.648438c25.90625-6.96875 46.296874-27.472656 53.210937-53.503906 10.457031-39.269531 10.578125-117.296875 10.578125-120.597656s-.121094-81.328125-10.574219-120.585938zm-309.742187 218.140626v-195.109376l171.3125 97.558594zm0 0" fill="#ffffff" data-original="#000000" style="" class=""/></g></svg>
